<?xml version="1.0" standalone="no"?>
<!DOCTYPE svg PUBLIC "-//W3C//DTD SVG 20010904//EN"
 "http://www.w3.org/TR/2001/REC-SVG-20010904/DTD/svg10.dtd">
<svg version="1.0" xmlns="http://www.w3.org/2000/svg"
 width="500" height="1000" viewBox="0 0 1890.000000 2680.000000"
 preserveAspectRatio="xMidYMid meet">
<g transform="translate(0.000000,2687.000000) scale(0.100000,-0.100000)"
fill="#000000" stroke="none">
<path d="M6349 20349 c-32 -35 -78 -117 -146 -264 -25 -55 -79 -170 -120 -255
-95 -196 -112 -253 -143 -488 -26 -189 -28 -523 -4 -580 16 -39 48 -149 69
-242 31 -130 49 -182 109 -305 98 -203 149 -255 401 -413 50 -31 247 -223 305
-297 18 -22 48 -58 69 -80 20 -22 64 -74 98 -115 67 -83 189 -205 243 -245 19
-14 76 -49 125 -76 50 -28 122 -73 160 -100 71 -49 265 -150 365 -189 30 -12
109 -50 175 -84 66 -35 165 -87 220 -116 158 -83 176 -95 262 -167 67 -56 329
-219 394 -245 10 -4 49 -27 86 -51 37 -25 84 -53 105 -63 47 -24 216 -173 271
-238 88 -104 142 -212 126 -251 -12 -31 -11 -35 12 -43 22 -8 37 -40 69 -147
10 -33 35 -105 55 -160 108 -285 163 -465 184 -595 14 -85 26 -120 40 -120 17
0 28 30 50 130 11 53 27 122 36 155 8 32 24 115 35 184 20 122 64 314 96 416
36 116 82 204 165 315 47 63 97 136 110 161 29 52 108 156 159 209 51 53 153
121 250 167 47 22 146 77 220 122 118 72 358 196 532 274 70 32 139 51 243 67
44 6 104 18 133 27 87 24 361 138 514 212 131 64 366 159 578 233 47 17 105
39 130 50 44 20 92 40 350 147 69 28 143 56 165 62 22 6 78 25 125 44 47 19
99 37 115 41 17 4 83 27 148 51 65 24 123 41 128 37 5 -3 9 -14 9 -25 0 -11
12 -77 26 -147 15 -76 25 -157 25 -202 l-2 -74 -62 -61 c-105 -102 -194 -171
-327 -257 -47 -30 -92 -61 -100 -69 -23 -22 -129 -101 -180 -133 -98 -62 -384
-287 -433 -341 -34 -36 -62 -79 -107 -160 -63 -115 -257 -403 -304 -450 -6 -7
-29 -34 -51 -61 -44 -53 -174 -185 -221 -223 -16 -13 -54 -47 -84 -75 -72 -66
-209 -159 -335 -228 -102 -56 -155 -73 -340 -107 -171 -32 -326 -69 -437 -105
-96 -32 -346 -122 -408 -148 -53 -22 -172 -49 -350 -79 -107 -18 -213 -42
-250 -57 -132 -52 -310 -182 -310 -227 0 -7 -8 -27 -17 -46 -14 -28 -18 -89
-25 -421 -4 -213 -12 -436 -18 -495 -5 -59 -10 -144 -10 -188 0 -69 -22 -210
-33 -222 -3 -2 -56 33 -118 78 -120 87 -208 132 -289 151 l-49 11 -71 136
c-39 75 -87 161 -105 191 -19 30 -48 81 -65 114 -17 32 -36 64 -41 70 -34 42
-83 107 -106 141 -15 22 -36 52 -48 67 -11 14 -31 41 -45 59 -29 39 -28 37
-156 155 -309 285 -497 379 -989 494 -121 28 -247 59 -280 70 -60 18 -273 103
-310 123 -35 18 -176 67 -280 97 -177 50 -339 98 -368 109 -50 19 -229 52
-397 73 -149 19 -234 21 -892 25 -517 3 -733 1 -747 -7 -28 -15 -27 -61 2 -87
26 -24 172 -123 181 -123 3 0 46 -26 95 -58 77 -49 381 -314 381 -331 0 -4 10
-17 23 -31 12 -14 57 -70 99 -125 131 -174 310 -363 430 -454 150 -114 175
-131 225 -155 110 -53 340 -120 449 -131 32 -3 151 -7 264 -9 134 -3 257 -12
355 -25 83 -12 249 -30 370 -41 121 -11 272 -29 335 -40 63 -12 167 -29 230
-40 156 -26 231 -45 325 -81 44 -17 103 -39 130 -49 124 -47 261 -75 565 -115
444 -59 414 -52 465 -115 50 -62 95 -93 330 -228 60 -35 81 -42 104 -37 28 6
31 3 51 -42 12 -26 28 -77 37 -113 8 -36 22 -94 31 -130 24 -98 30 -580 8
-693 -8 -45 -20 -190 -26 -322 -6 -132 -15 -280 -20 -330 -5 -49 -15 -165 -21
-257 -7 -93 -16 -168 -21 -168 -5 0 -13 11 -18 25 -27 71 -143 227 -235 316
-53 52 -131 137 -173 189 -91 113 -79 101 -171 174 -49 39 -106 73 -165 98
-50 21 -107 46 -126 57 -19 10 -78 41 -130 68 -133 70 -262 145 -287 169 -6 6
-116 63 -245 126 -183 91 -253 120 -325 137 -135 31 -421 53 -728 54 -303 2
-267 9 -480 -86 -196 -86 -297 -145 -376 -219 -20 -18 -54 -48 -77 -66 -22
-18 -53 -44 -69 -58 -15 -13 -30 -24 -33 -24 -14 0 -375 -372 -417 -430 -26
-36 -50 -67 -53 -70 -21 -20 -70 -91 -70 -102 0 -21 43 -38 93 -38 64 0 244
-29 316 -51 116 -36 268 -168 443 -385 121 -150 149 -188 213 -292 65 -108
211 -275 275 -315 14 -9 86 -38 160 -66 74 -27 172 -63 217 -80 94 -35 235
-69 443 -106 145 -26 500 -123 500 -137 0 -5 -16 -8 -35 -8 -123 0 -385 -86
-510 -169 -89 -58 -186 -217 -260 -426 -41 -116 -81 -163 -178 -209 -50 -24
-78 -28 -199 -36 -133 -8 -143 -11 -211 -45 -169 -86 -183 -131 -76 -235 49
-47 193 -130 226 -130 31 0 182 -79 288 -150 328 -219 448 -286 605 -335 67
-21 101 -24 335 -29 535 -13 735 -36 837 -95 29 -16 83 -56 119 -88 89 -79
175 -152 207 -177 15 -11 29 -23 32 -26 17 -20 163 -141 205 -170 87 -61 186
-120 200 -120 8 0 17 -4 20 -10 7 -11 -7 -115 -31 -230 -13 -59 -17 -192 -24
-640 -5 -358 -12 -578 -19 -600 -7 -24 -11 -216 -11 -592 l0 -556 26 -106 c14
-59 23 -110 20 -114 -3 -5 -20 -6 -39 -4 -30 3 -37 10 -57 53 -28 62 -74 111
-155 163 -50 33 -169 132 -195 164 -90 108 -124 145 -194 215 -44 43 -109 98
-146 122 -70 46 -245 135 -268 135 -8 0 -26 7 -40 15 -15 8 -74 30 -132 49
-119 38 -293 104 -390 145 -99 43 -137 57 -235 86 -49 15 -117 36 -149 47
-110 38 -212 57 -362 68 -82 6 -192 17 -244 25 -192 30 -551 45 -1096 45 -291
0 -545 4 -564 9 -19 5 -69 18 -110 29 -41 11 -124 26 -185 31 -174 18 -262 31
-308 47 -23 8 -91 20 -150 26 -122 13 -130 9 -117 -47 11 -50 58 -110 185
-235 65 -63 149 -153 188 -200 95 -113 89 -107 258 -245 105 -84 287 -205 311
-205 7 0 341 -190 416 -237 15 -9 68 -49 117 -89 172 -136 382 -238 585 -284
52 -11 138 -32 190 -46 52 -14 142 -36 200 -49 58 -14 146 -34 195 -47 82 -20
124 -23 455 -28 201 -4 408 -12 460 -19 180 -24 230 -33 230 -41 0 -4 -31 -24
-69 -44 -65 -34 -100 -66 -146 -132 -28 -40 -84 -93 -120 -111 -47 -25 -215
-147 -265 -193 -63 -58 -113 -91 -200 -130 -223 -100 -220 -98 -333 -209 -60
-58 -115 -118 -123 -133 -10 -20 -14 -70 -14 -201 0 -205 -3 -199 134 -332
105 -102 160 -149 249 -207 40 -26 77 -52 84 -58 7 -5 15 -10 19 -10 3 0 20
-10 37 -23 18 -12 47 -30 67 -41 19 -10 68 -44 110 -75 41 -31 98 -71 125 -88
50 -31 228 -123 239 -123 6 0 86 -35 186 -82 36 -17 242 -118 458 -224 216
-107 396 -194 398 -194 3 0 31 -12 62 -26 121 -55 273 -109 412 -145 177 -46
280 -79 332 -105 58 -29 132 -33 147 -7 16 30 24 7 11 -34 -7 -21 -28 -81 -47
-133 -55 -147 -70 -240 -77 -460 -3 -107 -10 -220 -15 -250 -5 -30 -12 -103
-16 -162 -7 -106 -7 -108 14 -108 13 0 21 7 22 18 1 39 19 243 28 317 6 44 10
140 10 214 1 166 20 276 71 406 48 122 59 171 60 255 0 36 7 126 15 200 8 74
19 245 24 380 6 135 15 279 21 320 5 41 15 107 20 145 6 39 12 140 14 225 2
85 9 182 15 215 36 202 48 436 31 600 -6 66 -16 232 -20 370 -7 236 -19 325
-40 325 -6 0 -10 6 -10 13 0 39 -135 130 -279 186 -28 12 -84 36 -125 56 l-74
35 30 61 c70 144 191 293 274 338 21 12 77 46 124 76 47 30 114 72 150 94 36
22 85 58 110 81 25 23 62 50 83 61 21 11 62 35 90 53 94 60 171 97 261 127
120 41 199 82 339 178 65 44 121 81 123 81 15 0 142 109 203 174 25 27 80 84
121 127 41 42 106 115 144 162 37 47 76 94 85 104 9 10 29 36 46 58 16 22 61
72 100 110 39 39 93 104 120 145 26 41 67 100 90 130 22 30 60 88 84 129 51
86 205 394 216 431 4 14 11 30 15 35 11 15 60 103 91 165 52 101 43 97 275
150 115 27 261 64 324 83 63 19 144 40 180 47 36 6 164 36 285 65 121 29 252
58 290 65 83 15 170 46 280 101 44 21 85 39 91 39 15 0 25 25 18 43 -9 24 -70
37 -216 48 -78 5 -181 15 -228 22 -49 7 -190 12 -330 12 l-245 0 -165 -75
c-220 -99 -294 -150 -398 -275 -46 -54 -94 -119 -108 -144 -23 -44 -29 -47
-102 -69 -314 -94 -300 -89 -442 -155 -110 -50 -168 -72 -261 -96 -42 -11 -94
-28 -115 -39 -22 -11 -82 -36 -134 -57 -212 -83 -453 -229 -620 -374 -97 -83
-430 -417 -430 -430 0 -6 -27 -49 -61 -96 -64 -91 -106 -175 -133 -265 -24
-83 -74 -301 -86 -375 -6 -37 -22 -85 -38 -112 -15 -27 -34 -64 -42 -83 -15
-39 -35 -73 -134 -233 -36 -59 -66 -110 -66 -112 0 -2 -13 -23 -29 -47 -16
-24 -52 -91 -79 -150 -28 -58 -62 -114 -74 -125 -13 -10 -54 -53 -93 -97 l-69
-78 -23 88 c-22 87 -23 101 -23 647 0 423 3 564 12 580 9 16 14 170 19 587 7
531 12 641 39 725 5 17 12 57 16 90 6 60 10 69 157 345 16 30 35 66 42 80 30
55 215 438 215 444 0 3 24 46 54 94 29 48 67 112 83 142 16 30 51 89 78 130
46 72 79 139 112 224 50 135 97 286 119 386 26 114 26 120 26 528 l-1 413 -27
37 c-36 47 -36 48 -119 114 -114 90 -139 98 -329 98 -175 0 -283 -15 -396 -56
-36 -13 -69 -24 -74 -24 -13 0 1 185 19 255 34 131 94 266 155 345 15 19 33
47 41 62 36 70 301 299 456 393 59 36 436 277 533 340 52 34 124 81 160 104
36 22 70 44 75 48 117 88 325 223 344 223 5 0 11 3 13 8 3 7 145 93 298 182
68 39 142 85 355 222 110 71 326 198 336 198 5 0 9 5 9 10 0 6 5 10 11 10 23
0 147 89 210 151 68 67 112 120 169 204 19 28 38 55 43 60 71 84 178 258 197
320 7 22 18 54 25 70 7 17 27 73 44 125 18 52 36 102 40 111 20 36 51 213 51
294 l0 85 78 0 c94 0 444 51 556 80 94 25 120 38 169 82 47 42 67 101 67 194
0 86 -11 101 -99 136 -46 17 -83 22 -203 26 -132 4 -153 2 -215 -18 -149 -50
-291 -132 -317 -185 -8 -16 -17 -55 -20 -85 -2 -31 -13 -71 -24 -90 -11 -19
-23 -49 -27 -66 -7 -36 0 -34 -210 -54 -55 -5 -138 -17 -185 -25 -47 -9 -123
-23 -170 -31 -190 -34 -533 -133 -656 -189 -29 -13 -141 -57 -250 -99 -195
-73 -444 -192 -514 -244 -165 -124 -545 -481 -630 -592 -19 -25 -37 -47 -40
-50 -53 -51 -228 -371 -275 -504 -40 -114 -64 -319 -65 -546 0 -169 -2 -194
-25 -274 -45 -153 -94 -242 -192 -346 -18 -19 -33 -39 -33 -43 0 -8 -103 -150
-127 -175 -7 -7 -13 -16 -13 -20 0 -13 -158 -182 -170 -182 -23 0 -16 207 20
580 5 58 14 209 20 335 6 127 18 269 27 317 19 108 15 653 -5 701 -7 16 -17
60 -23 98 -12 75 -54 189 -88 236 -19 27 -19 31 -5 88 23 91 51 564 60 990 5
279 7 292 29 340 33 68 40 75 121 128 143 91 186 107 395 142 190 31 318 64
440 111 293 112 570 192 776 224 122 19 237 51 298 82 129 67 275 166 395 269
200 171 274 248 405 419 27 36 59 75 70 87 11 13 29 40 40 60 11 21 48 80 83
132 34 52 62 98 62 103 0 20 95 155 134 191 22 21 77 66 121 100 44 33 82 64
85 68 7 8 212 156 269 193 24 16 68 48 96 71 29 23 79 59 111 81 129 84 246
178 351 282 l63 63 0 63 c0 34 -9 105 -21 157 -11 52 -25 125 -30 163 -6 37
-15 80 -20 93 -9 24 -13 25 -56 19 -25 -3 -51 -10 -57 -15 -6 -5 -42 -19 -81
-31 -38 -12 -131 -44 -205 -70 -74 -26 -159 -55 -189 -65 -30 -9 -73 -25 -95
-35 -23 -10 -81 -35 -131 -55 -49 -20 -105 -43 -124 -52 -76 -35 -184 -78
-336 -133 -252 -91 -338 -127 -525 -215 -189 -90 -429 -187 -517 -210 -30 -8
-98 -22 -151 -31 -108 -18 -168 -39 -322 -112 -58 -27 -124 -57 -145 -67 -45
-21 -293 -161 -369 -209 -28 -18 -95 -53 -149 -79 -100 -48 -210 -124 -260
-181 -52 -58 -148 -188 -169 -229 -11 -23 -53 -85 -93 -137 -74 -98 -124 -185
-149 -262 -14 -41 -30 -100 -74 -268 -11 -41 -30 -135 -41 -207 -12 -73 -33
-176 -46 -230 -14 -54 -25 -99 -25 -100 0 -2 -3 -3 -8 -3 -4 0 -13 30 -20 66
-12 64 -84 288 -137 429 -30 79 -64 176 -88 250 -9 28 -27 81 -40 120 -28 80
-28 78 40 190 24 38 43 73 43 78 0 4 8 27 19 50 60 134 136 381 156 507 21
134 21 457 -1 531 -17 56 -130 349 -166 429 -12 25 -31 73 -44 108 -13 34 -65
146 -114 249 -50 102 -90 187 -90 189 0 6 -80 178 -102 219 -12 22 -26 49 -32
60 -6 11 -13 22 -16 25 -3 3 -22 30 -43 60 -20 30 -47 66 -60 80 -12 14 -48
57 -79 95 -30 39 -90 102 -133 140 -42 39 -82 75 -89 80 -6 6 -49 40 -96 75
-68 52 -218 170 -321 254 -42 34 -309 221 -349 244 -44 25 -155 97 -215 139
-17 11 -52 34 -80 51 -27 17 -54 35 -60 39 -5 5 -23 17 -40 27 -30 19 -216
156 -225 166 -3 3 -34 30 -70 60 -36 30 -87 76 -115 102 -27 25 -63 57 -79 69
-16 13 -45 38 -65 56 -20 19 -106 86 -191 150 -85 64 -157 119 -160 122 -3 4
-39 36 -80 71 -41 36 -113 102 -160 147 l-85 83 -58 0 c-53 0 -62 -3 -88 -31z
m197 -77 c38 -37 105 -99 149 -137 44 -39 82 -72 85 -75 14 -14 191 -150 234
-180 28 -18 125 -99 216 -179 226 -198 246 -216 281 -243 17 -12 49 -38 71
-55 22 -18 53 -41 69 -50 16 -10 29 -21 29 -25 0 -4 4 -8 10 -8 9 0 39 -19
215 -135 42 -27 90 -59 108 -69 39 -24 266 -174 324 -214 23 -16 66 -49 95
-73 29 -24 60 -49 68 -56 8 -6 40 -31 70 -56 30 -24 111 -86 180 -137 120 -90
288 -247 342 -320 15 -19 39 -48 53 -65 15 -16 41 -50 58 -75 17 -25 34 -47
37 -50 4 -3 22 -32 40 -65 18 -33 36 -64 40 -70 4 -5 22 -46 40 -90 18 -44 71
-159 117 -255 46 -96 93 -193 103 -215 25 -52 124 -297 206 -510 l39 -100 0
-230 c0 -150 -5 -251 -13 -290 -36 -167 -111 -394 -181 -545 -27 -60 -77 -134
-84 -123 -3 4 -17 31 -32 58 -56 100 -168 223 -297 325 -39 30 -186 119 -263
159 -38 20 -72 39 -75 42 -3 4 -23 16 -45 28 -22 12 -47 26 -55 31 -8 5 -44
26 -79 46 -34 20 -99 67 -143 105 -44 38 -84 69 -88 69 -5 0 -15 6 -22 14 -8
7 -34 23 -58 34 -25 12 -92 46 -150 77 -152 82 -241 126 -360 179 -183 82
-252 118 -365 194 -60 41 -137 88 -170 105 -104 55 -214 154 -330 298 -30 36
-60 72 -67 80 -7 8 -38 43 -68 79 -61 73 -165 183 -225 240 -64 61 -110 95
-208 154 -94 56 -146 103 -212 191 -67 89 -143 260 -174 390 -11 50 -37 142
-58 205 -36 113 -37 119 -40 300 -2 102 1 221 7 265 27 213 41 294 56 345 17
59 216 489 291 629 53 101 74 121 123 121 31 0 45 -9 106 -68z m-461 -5253
c218 -24 325 -45 509 -103 78 -24 177 -53 221 -65 109 -30 252 -82 430 -156
177 -73 237 -92 450 -139 88 -20 192 -45 230 -56 39 -12 87 -25 108 -31 123
-31 323 -130 444 -221 60 -45 159 -123 179 -142 107 -100 201 -200 231 -245
21 -31 63 -87 94 -126 31 -38 64 -86 74 -105 10 -19 37 -68 61 -107 24 -40 44
-77 44 -82 0 -5 4 -11 9 -13 16 -6 136 -237 127 -245 -3 -3 -94 7 -203 21
-539 72 -573 79 -823 170 -80 29 -192 63 -250 74 -227 47 -461 83 -622 97
-175 16 -373 38 -499 56 -41 6 -191 14 -334 18 -236 8 -270 11 -365 36 -58 15
-109 31 -115 35 -5 4 -26 11 -45 15 -196 41 -545 344 -812 705 -54 73 -219
242 -328 335 -55 48 -173 127 -265 180 -69 39 -155 104 -155 116 0 7 233 8
713 4 610 -6 738 -9 892 -26z m8127 -673 c36 -8 80 -22 97 -31 30 -15 31 -17
31 -87 0 -109 -43 -170 -148 -211 -67 -27 -423 -87 -554 -94 l-118 -6 0 24 c0
13 11 45 25 71 18 34 25 63 25 101 0 37 5 60 18 74 27 31 141 99 207 123 33
12 76 28 95 36 47 18 236 18 322 0z m-754 -598 c-5 -112 -10 -147 -35 -223
-100 -299 -152 -425 -197 -475 -13 -14 -32 -41 -42 -60 -10 -19 -25 -41 -32
-48 -7 -8 -45 -60 -84 -115 -40 -56 -106 -136 -148 -177 -80 -78 -116 -103
-370 -254 -85 -51 -215 -130 -288 -177 -180 -114 -222 -140 -329 -200 -21 -12
-75 -44 -121 -73 -164 -101 -274 -166 -283 -166 -5 0 -9 -4 -9 -8 0 -5 -10
-14 -22 -20 -13 -7 -54 -35 -93 -62 -72 -53 -224 -154 -330 -221 -33 -21 -91
-58 -130 -83 -38 -24 -146 -92 -240 -151 -93 -59 -195 -126 -225 -149 -30 -22
-59 -44 -65 -48 -5 -4 -23 -18 -40 -31 -80 -62 -105 -78 -105 -68 0 6 18 30
41 53 53 56 111 142 133 198 69 170 86 272 86 505 0 223 23 375 77 510 24 61
61 139 82 175 21 36 48 81 58 100 29 52 86 144 92 150 4 3 24 28 45 55 71 90
405 412 545 525 23 19 54 45 68 57 15 12 43 30 64 40 22 10 39 21 39 26 0 4 5
7 10 7 6 0 28 8 48 19 20 10 78 38 127 63 50 25 126 58 170 73 44 15 141 52
215 82 176 71 302 115 425 148 55 14 123 32 150 40 127 35 515 98 704 114 11
1 13 -23 9 -131z m-3960 -670 c89 -39 302 -195 302 -220 0 -15 -20 -8 -74 27
-30 19 -58 35 -62 35 -24 0 -219 138 -242 171 -14 20 -13 21 9 14 13 -4 43
-16 67 -27z m-1703 -982 c173 -22 243 -39 329 -81 40 -19 77 -35 82 -35 5 0
34 -15 64 -33 30 -17 89 -48 130 -67 41 -19 104 -53 140 -76 140 -88 197 -122
255 -151 33 -16 87 -44 120 -61 33 -17 104 -51 157 -75 53 -24 109 -52 124
-63 58 -41 160 -143 214 -214 32 -41 103 -119 159 -172 124 -121 229 -273 276
-403 15 -42 18 -94 22 -340 l5 -290 -68 -39 c-190 -107 -335 -165 -539 -214
-93 -22 -192 -43 -218 -47 -27 -3 -79 -18 -115 -33 -66 -26 -72 -26 -312 -27
l-245 0 -115 37 c-156 50 -290 83 -456 112 -195 34 -334 70 -444 116 -52 22
-126 49 -165 61 -115 35 -174 71 -250 151 -96 100 -110 118 -162 206 -161 274
-454 591 -628 681 -65 33 -191 58 -343 68 l-83 6 17 25 c85 129 370 430 544
573 36 30 82 69 102 88 21 19 48 41 60 50 13 8 33 25 46 36 12 12 48 34 80 50
31 17 59 32 62 35 13 14 293 130 347 144 62 16 641 3 808 -18z m2787 -2010
c39 -17 131 -85 198 -147 l45 -41 3 -402 c4 -464 0 -500 -79 -738 -69 -212
-103 -288 -186 -420 -41 -65 -77 -126 -80 -135 -4 -10 -24 -46 -45 -81 -38
-63 -150 -281 -267 -522 -71 -146 -147 -290 -161 -304 -7 -7 -10 22 -10 82 0
87 33 280 59 343 5 13 19 58 31 99 33 113 75 229 116 316 76 164 120 249 137
269 31 35 133 187 164 246 16 31 46 80 65 110 20 30 56 90 81 134 24 44 55 98
67 120 62 109 82 161 92 228 11 75 5 269 -12 391 -13 91 -61 193 -98 208 -17
6 -103 8 -237 5 -224 -6 -212 -4 -434 -76 -68 -23 -126 -40 -128 -38 -1 2 2
65 9 139 l11 136 46 20 c59 27 77 32 186 52 119 23 378 26 427 6z m-712 -176
c0 -32 -5 -82 -11 -112 -6 -29 -13 -63 -15 -75 -3 -16 -14 -24 -37 -28 -17 -3
-187 -4 -377 -3 l-345 3 140 33 c77 19 163 41 190 49 108 34 286 112 390 172
28 15 53 26 58 24 4 -2 7 -31 7 -63z m829 -122 c47 -50 73 -189 75 -403 1
-155 0 -162 -27 -227 -16 -37 -53 -108 -83 -159 -30 -50 -54 -94 -54 -98 0 -5
-44 -75 -67 -107 -9 -11 -13 -18 -86 -144 -27 -47 -78 -125 -114 -175 -35 -49
-91 -146 -124 -215 -33 -69 -66 -137 -74 -151 -13 -23 -32 -80 -121 -361 -43
-134 -64 -263 -64 -390 0 -150 2 -148 -98 -89 -87 52 -145 96 -278 209 -60 52
-145 124 -188 160 -43 37 -86 74 -95 83 -25 24 -122 94 -156 111 -76 39 -342
64 -770 74 -299 6 -348 13 -465 62 -58 24 -199 99 -225 119 -6 4 -26 17 -45
27 -19 11 -86 53 -149 95 -217 145 -266 172 -396 216 -91 31 -169 79 -214 132
-49 57 -41 80 45 129 86 48 149 64 255 64 132 0 226 36 311 117 36 35 47 59
104 213 43 120 126 263 185 320 54 51 223 127 354 159 81 20 181 32 425 52 74
6 180 16 235 21 55 6 313 12 573 15 l472 4 0 -41 c0 -28 5 -43 16 -47 23 -8
34 14 34 70 0 53 -8 47 114 86 258 83 287 89 498 90 169 1 178 0 197 -21z
m3467 -1963 c54 -8 164 -20 244 -26 80 -5 149 -14 153 -18 22 -22 -210 -113
-343 -136 -50 -9 -153 -32 -228 -51 -75 -19 -182 -44 -237 -55 -123 -25 -317
-74 -342 -87 -10 -5 -72 -21 -138 -36 -66 -15 -156 -35 -200 -45 -44 -11 -82
-17 -84 -16 -12 12 170 228 228 270 43 32 147 87 286 151 139 64 134 63 356
64 135 0 240 -5 305 -15z m-1296 -597 c-15 -29 -41 -76 -57 -103 -16 -28 -47
-89 -67 -135 -41 -92 -101 -214 -161 -325 -68 -126 -83 -149 -136 -215 -20
-25 -54 -74 -75 -110 -21 -36 -80 -108 -130 -160 -49 -52 -106 -115 -125 -140
-18 -25 -46 -58 -61 -74 -15 -16 -42 -49 -60 -74 -32 -43 -226 -249 -316 -336
-24 -22 -103 -80 -175 -128 -73 -48 -136 -90 -142 -95 -50 -41 -138 -82 -285
-134 -80 -28 -142 -59 -242 -121 -43 -26 -81 -48 -84 -48 -7 0 -60 -42 -114
-90 -14 -12 -45 -33 -70 -47 -25 -14 -63 -38 -85 -53 -22 -15 -47 -30 -55 -34
-8 -4 -55 -33 -105 -65 -49 -33 -91 -55 -93 -51 -3 9 31 80 58 120 59 86 202
331 252 431 47 94 63 139 78 219 51 266 105 431 177 542 100 151 146 207 270
328 219 214 282 271 363 325 25 17 74 51 110 77 80 57 207 125 320 171 47 20
122 51 167 71 45 19 112 42 150 51 77 18 108 30 241 92 52 23 144 59 205 79
62 20 144 47 182 60 39 13 75 24 81 24 7 0 0 -23 -16 -52z m-7840 -1484 c48
-13 152 -30 240 -38 101 -10 197 -26 275 -47 l120 -32 705 -7 c686 -8 810 -13
991 -45 46 -8 113 -15 149 -15 97 0 231 -24 365 -64 66 -20 150 -46 187 -56
36 -11 140 -49 230 -86 169 -68 188 -75 378 -141 197 -68 393 -157 436 -197 7
-6 27 -22 46 -35 42 -32 160 -150 218 -220 76 -91 149 -159 257 -238 73 -53
111 -88 129 -120 16 -25 23 -48 18 -53 -5 -5 -142 -11 -304 -13 -250 -4 -308
-7 -380 -24 -107 -26 -111 -27 -192 -79 -37 -24 -103 -62 -145 -85 -43 -23
-87 -48 -98 -55 -23 -16 -70 -18 -111 -4 -80 26 -303 43 -659 49 -339 6 -378
9 -465 30 -231 56 -289 71 -360 90 -41 11 -129 32 -194 46 -133 28 -206 55
-347 125 -122 61 -170 91 -239 150 -56 48 -157 116 -258 174 -221 127 -276
158 -347 194 -44 22 -103 57 -131 79 -128 95 -292 236 -326 279 -73 91 -144
168 -247 268 -103 101 -161 169 -161 190 0 19 123 7 220 -20z m4774 -1469 c23
-91 46 -265 46 -349 l0 -98 -27 5 c-16 3 -59 13 -98 21 -87 18 -167 31 -270
46 -87 13 -181 33 -410 87 -82 19 -177 39 -210 44 -33 5 -80 15 -105 22 l-45
14 70 36 c39 19 106 59 150 87 44 28 103 57 130 64 150 42 167 43 466 45 l297
1 6 -25z m248 -64 c57 -27 139 -64 183 -82 44 -19 82 -37 83 -41 2 -5 9 -8 16
-8 27 0 94 -62 121 -112 l29 -53 8 -270 c5 -148 11 -353 14 -454 6 -182 0
-276 -32 -514 -7 -59 -14 -160 -14 -225 0 -64 -7 -164 -16 -222 -23 -165 -33
-286 -34 -410 -1 -117 -24 -417 -33 -426 -3 -3 -7 113 -10 258 -3 201 -8 278
-21 328 -26 99 -35 184 -46 441 -7 153 -18 273 -30 338 -15 78 -20 144 -20
284 0 150 -3 193 -19 242 -24 76 -76 190 -106 229 -12 17 -31 51 -42 77 -12
27 -37 59 -64 80 -79 62 -100 85 -100 115 -1 118 15 474 22 474 4 0 54 -22
111 -49z m-1247 -216 c111 -21 341 -72 480 -106 22 -5 94 -18 160 -29 270 -46
302 -52 347 -66 48 -16 51 -20 62 -85 4 -21 13 -42 21 -49 16 -13 50 -6 40 9
-3 5 -1 12 4 15 18 11 106 -72 138 -130 149 -274 153 -286 153 -510 0 -127 5
-208 19 -292 12 -68 24 -217 30 -357 10 -230 27 -372 52 -452 13 -42 26 -679
15 -739 -6 -29 -11 -34 -35 -34 -15 0 -51 11 -79 25 -29 14 -101 39 -160 55
-224 63 -359 104 -417 126 -93 36 -347 145 -355 154 -9 9 -138 70 -148 70 -6
0 -12 3 -14 8 -1 4 -41 26 -88 49 -381 186 -548 265 -630 298 -52 21 -99 42
-105 46 -5 3 -41 23 -80 44 -55 30 -227 144 -290 193 -5 4 -35 23 -65 41 -251
156 -265 167 -421 321 -70 70 -97 104 -102 129 -4 18 -7 100 -7 181 l0 148 68
73 c151 162 130 148 385 265 79 35 127 65 173 107 71 63 168 135 284 212 82
54 94 66 151 141 41 56 79 89 111 100 11 3 46 21 76 40 34 20 64 31 77 29 11
-3 79 -16 150 -30z"/>
</g>
</svg>
